<svg xmlns="http://www.w3.org/2000/svg" viewBox="0 0 670.51628 625.64298"><title>emendi_logo</title><g id="Layer_2" data-name="Layer 2"><circle cx="345.19595" cy="469.52232" r="61.17305" style="fill:#fff"/><circle cx="341.04624" cy="183.17299" r="61.17305" style="fill:#fff"/><circle cx="380.31906" cy="334.03915" r="75.65132" style="fill:#fff"/><circle cx="482.97474" cy="100.11977" r="99.78436" style="fill:#fff"/></g><g id="Layer_1" data-name="Layer 1"><path d="M86.74068,574.257c28.0737,0,50.59031-17.67224,58-41.7543H113.81763a30.91808,30.91808,0,0,1-27.21908,15.53346c-17.24271,0-30.49673-11.5435-32.63383-26.36613H146.878c5.55836-36.33786-23.08552-69.25762-60.13735-69.25762A60.56881,60.56881,0,0,0,25.7489,513.26351C25.7489,545.89734,51.39936,574.257,86.74068,574.257Zm-.28446-95.19569c14.81968,0,26.93335,8.836,30.63885,21.23393H55.67377C59.6652,488.03942,71.63528,479.06128,86.45622,479.06128Z" transform="translate(-25.7489 -44.42224)" style="fill:#fff"/><polygon points="241.959 527.696 270.603 527.696 270.603 410.413 232.838 410.413 203.338 490.074 173.412 410.413 135.363 410.413 135.363 527.696 164.007 527.696 164.007 458.152 190.37 527.696 215.88 527.696 241.959 459.009 241.959 527.696" style="fill:#fff"/><polygon points="448.13 462.142 482.759 527.696 511.262 527.696 511.262 410.271 482.475 410.271 482.475 475.254 448.272 410.271 419.344 410.271 419.344 527.696 448.13 527.696 448.13 462.142" style="fill:#fff"/><path d="M555.23686,572.11819h27.50332c44.89131,0,63.98519-27.21908,63.98519-59.1404,0-31.92153-19.09388-58.42683-63.98519-58.42683H555.23686Zm28.64388-88.781h2.423c22.08856,0,31.6356,13.25254,31.6356,29.64062,0,16.53-9.547,30.21228-31.6356,30.21228h-2.423Z" transform="translate(-25.7489 -44.42224)" style="fill:#fff"/><rect x="634.35912" y="410.55529" width="28.786" height="117.14065" style="fill:#fff"/><path d="M75.47552,604.48591c0-2.17506-1.08743-4.22908-3.50307-4.22908H35.3668a5.21566,5.21566,0,0,0-5.19546,5.439,3.935,3.935,0,0,0,3.987,4.22591H47.20529l-9.54388,43.85682-.2406,1.08594a4.77167,4.77167,0,0,0,4.95192,4.713,4.916,4.916,0,0,0,4.83256-4.108l9.90678-45.54773H70.885C73.66357,609.92175,75.47552,607.14489,75.47552,604.48591Z" transform="translate(-25.7489 -44.42224)" style="fill:#fff"/><path d="M116.06522,600.25683H89.36634c-2.175,0-4.46945,2.054-5.07442,4.108-2.41544,8.94187-3.98553,18.36493-6.03955,27.54591-1.69238,7.36883-4.10782,15.10076-4.95338,22.59063l-.121.847c-.121,2.535,2.77855,3.50308,5.07442,3.50308h27.062a4.82788,4.82788,0,0,0,5.07295-4.834,4.53463,4.53463,0,0,0-4.71153-4.83088H84.534l2.89937-13.53089h18.84738a5.00818,5.00818,0,0,0,5.194-4.834,4.50337,4.50337,0,0,0-4.83256-4.83087H89.60842l3.382-16.06905h22.71314a4.82853,4.82853,0,0,0,5.07463-4.83088A4.53488,4.53488,0,0,0,116.06522,600.25683Z" transform="translate(-25.7489 -44.42224)" style="fill:#fff"/><path d="M157.13885,599.655c-17.51789,0-30.92774,19.56874-31.53123,35.63758-.3631,12.44494,7.00741,24.40594,20.41726,24.40594,5.436,0,22.8329-5.07611,23.07477-11.961a4.87308,4.87308,0,0,0-4.83236-4.95487c-3.02061,0-8.69853,7.251-17.881,7.251-8.09335,0-10.99272-7.0091-10.6313-14.13607.24207-10.99272,8.3369-26.57762,21.02222-26.57762,9.05995,0,10.38944,6.88489,14.37644,6.88489a5.47858,5.47858,0,0,0,5.315-4.95191C176.71075,604.24384,162.69573,599.655,157.13885,599.655Z" transform="translate(-25.7489 -44.42224)" style="fill:#fff"/><path d="M220.56272,600.25683a4.91551,4.91551,0,0,0-4.83235,4.108l-4.5905,21.14178H192.77643c1.207-5.43584,4.22759-15.46386,4.46945-20.53681a4.70139,4.70139,0,0,0-4.95339-4.713,4.91552,4.91552,0,0,0-4.83235,4.108l-10.75255,49.29266c-.36142,3.382,1.32949,5.799,4.713,5.799a4.82063,4.82063,0,0,0,4.83087-4.108l4.35011-20.29769h18.36324c-1.08742,5.318-3.866,14.61978-4.10783,19.69273-.121,2.90105,2.17485,4.713,4.95339,4.713a5.00969,5.00969,0,0,0,4.83235-4.108l5.3165-24.52677c1.207-5.67791,5.315-20.89992,5.55709-25.85183A4.77311,4.77311,0,0,0,220.56272,600.25683Z" transform="translate(-25.7489 -44.42224)" style="fill:#fff"/><path d="M366.30655,599.655c-17.51788,0-30.92773,19.56874-31.53122,35.63758-.36311,12.44494,7.0074,24.40594,20.41725,24.40594,5.43585,0,22.83291-5.07611,23.07477-11.961a4.87308,4.87308,0,0,0-4.83236-4.95487c-3.02061,0-8.69853,7.251-17.881,7.251-8.09335,0-10.99293-7.0091-10.6313-14.13607.24186-10.99272,8.3369-26.57762,21.02222-26.57762,9.05995,0,10.38944,6.88489,14.37645,6.88489a5.47859,5.47859,0,0,0,5.315-4.95191C385.87825,604.24384,371.86343,599.655,366.30655,599.655Z" transform="translate(-25.7489 -44.42224)" style="fill:#fff"/><path d="M417.16445,600.25683h-15.2218c-2.41691,0-4.47093-.6018-5.07442,2.29609L385.5124,654.01748l-.121,1.0891a4.57511,4.57511,0,0,0,4.83236,4.592,4.72357,4.72357,0,0,0,4.83256-3.987l4.10783-18.00182h5.67812l7.85276,18.96673a4.58186,4.58186,0,0,0,4.34863,3.02209c2.53648,0,5.19546-1.933,5.31629-4.592,0-2.29609-5.91978-15.222-7.12844-18.12285,8.33542-2.656,14.73955-12.321,15.101-20.77889C430.57451,608.23084,425.62091,600.25683,417.16445,600.25683Zm-5.43584,27.788H401.33769l3.866-18.12307h11.5979c2.659,0,3.74641,3.987,3.74641,6.16206C420.42693,619.7077,416.077,628.04482,411.72861,628.04482Z" transform="translate(-25.7489 -44.42224)" style="fill:#fff"/><path d="M476.1176,600.25683H449.41873c-2.17485,0-4.46946,2.054-5.07443,4.108-2.41544,8.94187-3.98553,18.36493-6.03954,27.54591-1.69239,7.36883-4.10783,15.10076-4.95339,22.59063l-.121.847c-.121,2.535,2.77855,3.50308,5.07443,3.50308h27.062a4.82788,4.82788,0,0,0,5.07295-4.834,4.53463,4.53463,0,0,0-4.71153-4.83088H444.58637l2.89937-13.53089h18.84738a5.00818,5.00818,0,0,0,5.194-4.834,4.50337,4.50337,0,0,0-4.83256-4.83087H449.6608l3.382-16.06905H475.756a4.82853,4.82853,0,0,0,5.07463-4.83088A4.53488,4.53488,0,0,0,476.1176,600.25683Z" transform="translate(-25.7489 -44.42224)" style="fill:#fff"/><path d="M513.80919,599.04985c-2.054,0-3.866,1.57009-4.83235,3.382-3.14165,5.79895-29.47889,52.67469-29.59993,55.81466-.11935,2.538,2.29609,4.71279,4.9536,4.71279,1.812,0,3.987-.84682,5.07443-4.10782,1.32949-3.50308,3.987-7.369,4.83235-9.181h18.8459c.36311,3.866-.24038,9.786,5.19546,9.786,2.65751,0,5.3165-1.812,5.19546-4.713v-.84388L518.15762,604.002C517.91723,601.467,516.4667,599.04985,513.80919,599.04985Zm-14.25688,40.95576,10.39092-19.2088,2.175,19.2088Z" transform="translate(-25.7489 -44.42224)" style="fill:#fff"/><path d="M573.12376,600.25683H536.51811a5.21524,5.21524,0,0,0-5.194,5.439,3.93491,3.93491,0,0,0,3.987,4.22591h13.04674L538.814,653.77857l-.24207,1.08594a4.7735,4.7735,0,0,0,4.95508,4.713,4.91788,4.91788,0,0,0,4.83087-4.108l9.907-45.54773h13.773c2.77685,0,4.592-2.77686,4.592-5.43584C576.62979,602.31085,575.54068,600.25683,573.12376,600.25683Z" transform="translate(-25.7489 -44.42224)" style="fill:#fff"/><path d="M592.4536,599.655a5.02538,5.02538,0,0,0-4.95192,3.98679l-10.99609,50.61773-.24186,1.08889a4.85059,4.85059,0,0,0,4.95486,4.71006,4.91069,4.91069,0,0,0,4.83109-4.10509L597.1666,605.333l.121-.96808A4.60288,4.60288,0,0,0,592.4536,599.655Z" transform="translate(-25.7489 -44.42224)" style="fill:#fff"/><path d="M640.53316,599.534a4.65088,4.65088,0,0,0-4.47093,2.77686l-18.4828,35.88281-2.659-34.43375a4.54586,4.54586,0,0,0-4.71005-4.22592c-2.90106,0-5.318,1.812-5.19693,4.83088v.48393l4.22886,50.37861c.121,2.41712,1.57009,4.95212,4.35011,4.95212a5.7011,5.7011,0,0,0,4.83087-3.50307c3.0221-5.67791,26.8197-49.53157,26.94074-52.55366C645.48507,601.467,642.95007,599.534,640.53316,599.534Z" transform="translate(-25.7489 -44.42224)" style="fill:#fff"/><path d="M688.24983,600.25683H661.55095c-2.175,0-4.47093,2.054-5.07294,4.108-2.41692,8.94187-3.987,18.36493-6.041,27.54591-1.69092,7.36883-4.10783,15.10076-4.95487,22.59063l-.121.847c-.11808,2.535,2.78,3.50308,5.07591,3.50308h27.06176a4.82861,4.82861,0,0,0,5.07295-4.834,4.53422,4.53422,0,0,0-4.70984-4.83088H656.72008l2.89789-13.53089h18.8459a5.01,5.01,0,0,0,5.19694-4.834,4.50378,4.50378,0,0,0-4.834-4.83087H661.793l3.38182-16.06905h22.71187a4.82863,4.82863,0,0,0,5.0759-4.83088A4.53471,4.53471,0,0,0,688.24983,600.25683Z" transform="translate(-25.7489 -44.42224)" style="fill:#fff"/><path d="M301.674,628.97641a36.20637,36.20637,0,0,1-3.04318,15.39723l-23.99138-37.60092H299.0785V595.04788H255.12363l15.8449,24.61744c-13.428,2.86479-20.76814,12.80193-20.76814,24.52993,0,16.47117,11.99559,25.87,26.58691,25.87A36.7098,36.7098,0,0,0,298.72,662.72339l3.84931,5.99863H314.119l-8.32636-13.068c5.19251-6.80624,8.41556-15.84806,8.41556-26.67757Zm-23.63292,29.00382c-9.31109,0-15.66651-5.46009-15.66651-14.59258,0-6.89418,4.38617-12.98032,14.77119-14.23285l15.12943,23.63461A22.39338,22.39338,0,0,1,278.04109,657.98023Z" transform="translate(-25.7489 -44.42224)" style="fill:#5dc5be"/><path d="M509.85278,181.49451a47.74074,47.74074,0,0,0,19.59449.226,135.93656,135.93656,0,0,0-46.30164-77.48254,47.97749,47.97749,0,0,0,26.70715,77.25659Z" transform="translate(-25.7489 -44.42224)" style="fill:#5dc5be"/><circle cx="379.71536" cy="222.94548" r="38.58308" transform="translate(-67.17551 49.96244) rotate(-13.44313)" style="fill:#5dc5be"/><path d="M332.94287,329.21265c.60083.31561,1.2121.59008,1.81531.89587a91.14929,91.14929,0,0,1,39.2926-28.74231,72.88528,72.88528,0,1,1,39.25647-128.173,99.79225,99.79225,0,0,1,13.18988-85.52979A158.29483,158.29483,0,0,0,262.406,211.24451c-.68226,3.0636-1.20563,6.12414-1.70221,9.18286A135.85924,135.85924,0,0,0,332.94287,329.21265Z" transform="translate(-25.7489 -44.42224)" style="fill:#5dc5be"/><path d="M317.0766,368.50159c.13147-.65625.24029-1.31183.38653-1.96814a90.35979,90.35979,0,0,1,12.43146-29.59284c-.02044-.01086-.04168-.01989-.06213-.0307a145.91283,145.91283,0,0,1-70.99976-83.97223A158.59172,158.59172,0,0,0,317.0766,368.50159Z" transform="translate(-25.7489 -44.42224)" style="fill:#5dc5be"/><path d="M527.56525,275.364a145.7108,145.7108,0,0,1-50.246,54.934,90.73122,90.73122,0,0,1,19.321,52.03833,158.34328,158.34328,0,0,0,76.48694-162.07177,100.244,100.244,0,0,1-32.13172,18.20562A146.48831,146.48831,0,0,1,527.56525,275.364Z" transform="translate(-25.7489 -44.42224)" style="fill:#5dc5be"/><path d="M516.58545,272.05243a136.25378,136.25378,0,0,0,11.48425-30.06177,99.72955,99.72955,0,0,1-90.366-27.82739A72.68266,72.68266,0,0,1,394.06512,296.304a90.80085,90.80085,0,0,1,76.57,26.31427A135.34339,135.34339,0,0,0,516.58545,272.05243Z" transform="translate(-25.7489 -44.42224)" style="fill:#5dc5be"/><path d="M422.59528,122.3454A90.68854,90.68854,0,0,0,530.409,230.694a135.6196,135.6196,0,0,0,.08429-43.30286,52.7435,52.7435,0,0,1-51.3263-86.30578,136.051,136.051,0,0,0-45.15558-22.93183,99.177,99.177,0,0,0-7.51428,9.50989q5.59845.34763,11.23212,1.09943A90.37917,90.37917,0,0,0,422.59528,122.3454Z" transform="translate(-25.7489 -44.42224)" style="fill:#5dc5be"/><path d="M530.37213,46.821A99.491,99.491,0,0,0,444.064,68.30219a145.75691,145.75691,0,0,1,44.82629,24.23162,52.74667,52.74667,0,1,1,53.46039,90.6463,146.0835,146.0835,0,0,1,.71631,43.75751,91.26439,91.26439,0,0,0,28.07031-16.85492c.77759,3.361,1.43243,6.75879,1.98993,10.18189A99.71882,99.71882,0,0,0,530.37213,46.821Z" transform="translate(-25.7489 -44.42224)" style="fill:#5dc5be"/><path d="M443.69739,346.32837a40.39021,40.39021,0,1,1-64.89209,6.15674,145.74406,145.74406,0,0,1-39.27075-10.96881,76.37407,76.37407,0,0,0,27.0979,103.32946,69.09083,69.09083,0,1,0,40.7868,10.81318,76.30393,76.30393,0,0,0,60.9372-120.01227A147.07008,147.07008,0,0,1,443.69739,346.32837ZM430.51263,521.7019H337.43749c2.14076,14.84821,15.41639,26.41169,32.6902,26.41169a30.971,30.971,0,0,0,27.266-15.56031h30.97668c-7.42248,24.12366-29.97821,41.82636-58.10034,41.82636-35.4021,0-61.097-28.40857-61.097-61.09876a60.67344,60.67344,0,0,1,61.097-60.956C407.386,452.32483,436.07935,485.30133,430.51263,521.7019Z" transform="translate(-25.7489 -44.42224)" style="fill:#5dc5be"/><path d="M344.13239,334.43188a135.16267,135.16267,0,0,0,41.02227,9.95752,40.19448,40.19448,0,0,1,50.03089-5.31915A136.60074,136.60074,0,0,0,462.041,327.78619a76.292,76.292,0,0,0-117.90863,6.64569Z" transform="translate(-25.7489 -44.42224)" style="fill:#5dc5be"/><path d="M340.2995,500.29028h61.52582c-3.7121-12.41931-15.84516-21.27063-30.69178-21.27063S344.29633,488.01331,340.2995,500.29028Z" transform="translate(-25.7489 -44.42224)" style="fill:#5dc5be"/><circle cx="648.8325" cy="374.06701" r="21.68378" style="fill:#5dc5be"/><circle cx="389.06978" cy="322.96124" r="21.68378" style="fill:#5dc5be"/></g></svg>